<?xml version="1.0" encoding="UTF-8" standalone="no"?>
<!-- Created with Inkscape (http://www.inkscape.org/) -->

<svg
   version="1.1"
   id="svg1"
   width="84.554688"
   height="11.309021"
   viewBox="0 0 84.554689 11.309021"
   sodipodi:docname="TELAS SUPERVISORIO CALORATTO - CARMOMAQ - NOVA VERSÃO GSB2 - AGO24.pdf"
   xmlns:inkscape="http://www.inkscape.org/namespaces/inkscape"
   xmlns:sodipodi="http://sodipodi.sourceforge.net/DTD/sodipodi-0.dtd"
   xmlns="http://www.w3.org/2000/svg"
   xmlns:svg="http://www.w3.org/2000/svg">
  <defs
     id="defs1">
    <clipPath
       clipPathUnits="userSpaceOnUse"
       id="clipPath1522">
      <path
         d="M 0,768 H 985.2 V 0 H 0 Z"
         transform="translate(-521.76976,-249.20701)"
         id="path1522" />
    </clipPath>
    <clipPath
       clipPathUnits="userSpaceOnUse"
       id="clipPath1524">
      <path
         d="M 0,768 H 985.2 V 0 H 0 Z"
         transform="translate(-521.78476,-249.86421)"
         id="path1524" />
    </clipPath>
  </defs>
  <sodipodi:namedview
     id="namedview1"
     pagecolor="#ffffff"
     bordercolor="#000000"
     borderopacity="0.25"
     inkscape:showpageshadow="2"
     inkscape:pageopacity="0.0"
     inkscape:pagecheckerboard="0"
     inkscape:deskcolor="#d1d1d1">
    <inkscape:page
       x="-1.7377956e-06"
       y="-2.3828829e-07"
       width="84.554688"
       height="11.309021"
       id="page2"
       margin="0"
       bleed="0" />
  </sodipodi:namedview>
  <g
     id="g1139"
     inkscape:groupmode="layer"
     inkscape:label="10"
     transform="translate(-12614.536,-689.87067)">
    <g
       id="g1888">
      <path
         id="path1518"
         d="m 4.3022016,0.09474688 c -1.1103516,0 -2.0390625,-0.34277344 -2.7890625,-1.03125 C 0.76313906,-1.62205 0.38813906,-2.5683391 0.38813906,-3.7724406 c 0,-1.125 0.34570313,-2.0566406 1.04296874,-2.8007813 0.703125,-0.75 1.6582031,-1.125 2.8710938,-1.125 0.5449218,0 1.0898437,0.1230469 1.6289062,0.3632813 0.5449219,0.243164 1.0195313,0.609375 1.4179688,1.1015625 l -1.3125,1.1132812 C 5.8314984,-5.3691203 5.5795453,-5.5771281 5.2748578,-5.7411906 4.9701703,-5.9111125 4.644975,-5.9990031 4.3022016,-5.9990031 c -0.5800782,0 -1.0664063,0.2050781 -1.4648438,0.609375 -0.3925781,0.3984375 -0.5859375,0.9375 -0.5859375,1.6171875 0,0.609375 0.1875,1.1220703 0.5625,1.5351562 0.3808594,0.4160157 0.8789063,0.6210938 1.4882813,0.6210938 0.328125,0 0.6474609,-0.076172 0.9609375,-0.234375 0.3105468,-0.1640625 0.5683593,-0.375 0.7734375,-0.6328125 l 1.3125,1.125 C 7.0033734,-0.918925 6.5697797,-0.5673625 6.0482953,-0.30369062 5.5238813,-0.03708906 4.9408734,0.09474688 4.3022016,0.09474688 Z M 12.921342,9.96875e-4 12.47603,-1.3583781 H 9.8158734 L 9.3705609,9.96875e-4 H 7.5072797 L 10.284623,-7.5927531 h 1.710938 L 14.796342,9.96875e-4 Z M 10.308061,-2.8700969 h 1.675781 l -0.832031,-2.5546875 h -0.02344 z M 15.385209,9.96875e-4 V -7.5927531 h 1.792969 v 6 h 3.1875 V 9.96875e-4 Z m 9.158204,0.105468755 c -1.157227,0 -2.097657,-0.36328125 -2.824219,-1.08984375 C 20.992631,-1.7158 20.62935,-2.6533 20.62935,-3.7958781 c 0,-1.1484375 0.363281,-2.0859375 1.089844,-2.8125 0.726562,-0.7265625 1.666992,-1.0898438 2.824219,-1.0898438 1.139648,0 2.074218,0.3632813 2.800781,1.0898438 0.726562,0.7207031 1.089844,1.6582031 1.089844,2.8125 0,1.1572265 -0.363282,2.0976562 -1.089844,2.82421873 -0.726563,0.72070312 -1.661133,1.078125 -2.800781,1.078125 z m 0,-1.66406253 c 0.577148,0 1.057617,-0.2138672 1.441406,-0.6445312 0.389648,-0.4277344 0.585937,-0.9609375 0.585937,-1.59375 0,-0.6386719 -0.196289,-1.171875 -0.585937,-1.59375 -0.383789,-0.421875 -0.864258,-0.6328125 -1.441406,-0.6328125 -0.603516,0 -1.095704,0.2167969 -1.476563,0.6445312 -0.383789,0.421875 -0.574219,0.9492188 -0.574219,1.5820313 0,0.6269531 0.19043,1.1572265 0.574219,1.59375 0.380859,0.430664 0.873047,0.6445312 1.476563,0.6445312 z M 35.397905,9.96875e-4 H 33.300248 L 31.741655,-2.4482219 H 31.120561 V 9.96875e-4 H 29.362748 V -7.5927531 h 2.953125 c 0.896485,0 1.573243,0.243164 2.027344,0.7265625 0.459961,0.477539 0.691406,1.1103515 0.691406,1.8984375 0,1.125 -0.474609,1.883789 -1.417968,2.2734375 v 0.023437 z M 31.120561,-6.0107219 v 2.0039063 h 0.820312 c 0.38086,0 0.682618,-0.087891 0.902344,-0.2695313 0.216797,-0.1787109 0.328125,-0.4248047 0.328125,-0.7382812 0,-0.2871094 -0.105469,-0.5273438 -0.316406,-0.7148438 -0.205078,-0.1875 -0.498047,-0.28125 -0.878906,-0.28125 z M 40.935014,9.96875e-4 40.489702,-1.3583781 H 37.829545 L 37.384233,9.96875e-4 H 35.520952 L 38.298295,-7.5927531 h 1.710938 L 42.810014,9.96875e-4 Z M 38.321733,-2.8700969 h 1.675781 l -0.832031,-2.5546875 h -0.02344 z m 0,0"
         style="fill:#231f20;fill-opacity:1;fill-rule:nonzero;stroke:none"
         aria-label="CALORA"
         transform="matrix(1.3333333,0,0,1.3333333,12614.019,701.03773)" />
      <path
         id="path1519"
         d="M 2.2269583,9.96875e-4 V -5.9990031 h -2.015625 v -1.59375 h 5.8007812 v 1.59375 H 3.9964895 V 9.96875e-4 Z m 6.1230469,0 V -5.9990031 h -2.015625 v -1.59375 h 5.8007808 v 1.59375 H 10.119536 V 9.96875e-4 Z m 0,0"
         style="fill:#f14624;fill-opacity:1;fill-rule:nonzero;stroke:none"
         aria-label="TT"
         transform="matrix(1.3333333,0,0,1.3333333,12669.837,701.03773)" />
      <path
         id="path1520"
         d="m 4.2999182,0.10646563 c -1.1572266,0 -2.0976562,-0.36328125 -2.8242187,-1.08984375 C 0.74913696,-1.7158 0.38585571,-2.6533 0.38585571,-3.7958781 c 0,-1.1484375 0.36328125,-2.0859375 1.08984379,-2.8125 0.7265625,-0.7265625 1.6669921,-1.0898438 2.8242187,-1.0898438 1.1396484,0 2.0742188,0.3632813 2.8007813,1.0898438 0.7265625,0.7207031 1.0898437,1.6582031 1.0898437,2.8125 0,1.1572265 -0.3632812,2.0976562 -1.0898437,2.82421873 -0.7265625,0.72070312 -1.6611329,1.078125 -2.8007813,1.078125 z m 0,-1.66406253 c 0.5771484,0 1.0576172,-0.2138672 1.4414063,-0.6445312 0.3896484,-0.4277344 0.5859375,-0.9609375 0.5859375,-1.59375 0,-0.6386719 -0.1962891,-1.171875 -0.5859375,-1.59375 -0.3837891,-0.421875 -0.8642579,-0.6328125 -1.4414063,-0.6328125 -0.6035156,0 -1.0957031,0.2167969 -1.4765625,0.6445312 -0.3837891,0.421875 -0.5742187,0.9492188 -0.5742187,1.5820313 0,0.6269531 0.1904296,1.1572265 0.5742187,1.59375 0.3808594,0.430664 0.8730469,0.6445312 1.4765625,0.6445312 z m 0,0"
         style="fill:#231f20;fill-opacity:1;fill-rule:nonzero;stroke:none"
         aria-label="O"
         transform="matrix(1.3333333,0,0,1.3333333,12685.569,701.03773)" />
      <path
         id="path1521"
         d="m 0,0 c -0.354,0 -0.643,0.288 -0.643,0.643 0,0.354 0.289,0.643 0.643,0.643 0.354,0 0.643,-0.289 0.643,-0.643 C 0.643,0.288 0.354,0 0,0 m 0,1.39 c -0.412,0 -0.748,-0.335 -0.748,-0.747 0,-0.412 0.336,-0.748 0.748,-0.748 0.412,0 0.748,0.336 0.748,0.748 C 0.748,1.055 0.412,1.39 0,1.39"
         style="fill:#231f20;fill-opacity:1;fill-rule:nonzero;stroke:none"
         transform="matrix(1.3333333,0,0,-1.3333333,12698.093,691.724)"
         clip-path="url(#clipPath1522)" />
      <path
         id="path1523"
         d="M 0,0 H -0.137 V 0.286 H 0.01 C 0.061,0.286 0.101,0.274 0.129,0.249 0.158,0.224 0.172,0.188 0.172,0.143 0.172,0.099 0.157,0.065 0.128,0.039 0.098,0.013 0.056,0 0,0 M 0.135,-0.114 C 0.259,-0.08 0.321,0.006 0.321,0.141 0.321,0.223 0.297,0.29 0.249,0.34 0.201,0.39 0.128,0.415 0.031,0.415 h -0.312 v -0.847 h 0.144 v 0.302 h 0.113 l 0.203,-0.302 h 0.173 l -0.217,0.314 z"
         style="fill:#231f20;fill-opacity:1;fill-rule:nonzero;stroke:none"
         transform="matrix(1.3333333,0,0,-1.3333333,12698.113,690.84773)"
         clip-path="url(#clipPath1524)" />
    </g>
  </g>
</svg>
